<svg xmlns="http://www.w3.org/2000/svg" xmlns:xlink="http://www.w3.org/1999/xlink" t="1584762969678" class="icon" viewBox="0 0 1024 1024" version="1.1" p-id="12392" width="200" height="200"><defs><style type="text/css"/></defs><path d="M95.1-16.299999999999955c2.6 0 5.2 0.3 7.8 1l212.2 53c4.2 1.1 8.1 3 11.5 5.5 21.3 0.9 41.2 9.6 56.4 24.8l562.6 562.6c33.1 33.1 33.1 87 0 120.1L830 866.1C814 882.1 792.6 891 770 891c-22.7 0-44-8.8-60-24.9L147.4 303.5c-15.6-15.6-23.8-35.8-24.7-56.3-2.6-3.4-4.5-7.3-5.5-11.6l-53-212.2c-2.7-10.9 0.5-22.4 8.4-30.4 6-6 14.1-9.3 22.5-9.3z m44 76l26.4 105.6 79.2-79.2-105.6-26.4zM770 826.9c5.6 0 10.8-2.2 14.8-6.1l115.5-115.5c8.2-8.2 8.2-21.4 0-29.6L858 633.5l-146.1 144 43.2 43.2c4 4.1 9.3 6.2 14.9 6.2zM192.6 258.29999999999995l474.1 474.1 146.1-144-475.1-475.2c-4-4-9.2-6.1-14.8-6.1s-10.8 2.2-14.8 6.1L192.6 228.70000000000005c-8.1 8.1-8.1 21.4 0 29.6zM992.1-59.60000000000002h-960c-17.7 0-32-14.3-32-32s14.3-32 32-32h960c17.7 0 32 14.3 32 32s-14.4 32-32 32z" transform="translate(0 900)scale(1 -1)"/></svg>