<svg xmlns="http://www.w3.org/2000/svg" xmlns:xlink="http://www.w3.org/1999/xlink" t="1584762969678" class="icon" viewBox="0 0 1024 1024" version="1.1" p-id="12392" width="200" height="200"><defs><style type="text/css"/></defs><path d="M905.6 796.8H118.4v-694.4h787.2V796.8z m-64-102.4H182.4V732.8h659.2v-38.4zM182.4 166.39999999999998V662.4h659.2v-499.2H182.4zM300.8 409.6m-25.6 0a25.6 25.6 0 1 1 51.2 0 25.6 25.6 0 1 1-51.2 0ZM441.6 409.6m-25.6 0a25.6 25.6 0 1 1 51.2 0 25.6 25.6 0 1 1-51.2 0ZM585.6 409.6m-25.6 0a25.6 25.6 0 1 1 51.2 0 25.6 25.6 0 1 1-51.2 0ZM726.4 409.6m-25.6 0a25.6 25.6 0 1 1 51.2 0 25.6 25.6 0 1 1-51.2 0ZM441.6 560m-25.6 0a25.6 25.6 0 1 1 51.2 0 25.6 25.6 0 1 1-51.2 0ZM585.6 560m-25.6 0a25.6 25.6 0 1 1 51.2 0 25.6 25.6 0 1 1-51.2 0ZM726.4 556.8m-25.6 0a25.6 25.6 0 1 1 51.2 0 25.6 25.6 0 1 1-51.2 0ZM300.8 268.79999999999995m-25.6 0a25.6 25.6 0 1 1 51.2 0 25.6 25.6 0 1 1-51.2 0ZM441.6 268.79999999999995m-25.6 0a25.6 25.6 0 1 1 51.2 0 25.6 25.6 0 1 1-51.2 0ZM585.6 268.79999999999995m-25.6 0a25.6 25.6 0 1 1 51.2 0 25.6 25.6 0 1 1-51.2 0Z" transform="translate(0 900)scale(1 -1)"/></svg>