<svg xmlns="http://www.w3.org/2000/svg" xmlns:xlink="http://www.w3.org/1999/xlink" t="1584762969678" class="icon" viewBox="0 0 1024 1024" version="1.1" p-id="12392" width="200" height="200"><defs><style type="text/css"/></defs><path d="M123.6385189 723.81629667m-72.81777778 0a72.81777778 72.81777778 0 1 1 145.63555555 0 72.81777778 72.81777778 0 1 1-145.63555555 0ZM123.6385189 384m-72.81777778 0a72.81777778 72.81777778 0 1 1 145.63555555 0 72.81777778 72.81777778 0 1 1-145.63555555 0ZM123.6385189 44.18370332999996m-72.81777778 0a72.81777778 72.81777778 0 1 1 145.63555555 0 72.81777778 72.81777778 0 1 1-145.63555555 0ZM948.90666667 80.59259221000002H342.09185223c-19.41807445 0-36.40888889-16.99081443-36.40888889-36.40888888s16.99081443-36.40888889 36.40888889-36.4088889h606.81481444c19.41807445 0 36.40888889 16.99081443 36.40888888 36.4088889s-16.99081443 36.40888889-36.40888888 36.40888888zM342.09185223 687.40740779h606.81481444c19.41807445 0 36.40888889 16.99081443 36.40888888 36.40888888s-16.99081443 36.40888889-36.40888888 36.4088889H342.09185223c-19.41807445 0-36.40888889-16.99081443-36.40888889-36.4088889s16.99081443-36.40888889 36.40888889-36.40888888zM948.90666667 420.40888889H342.09185223c-19.41807445 0-36.40888889-16.99081443-36.40888889-36.40888889s16.99081443-36.40888889 36.40888889-36.40888889h606.81481444c19.41807445 0 36.40888889 16.99081443 36.40888888 36.40888889s-16.99081443 36.40888889-36.40888888 36.40888889z" transform="translate(0 900)scale(1 -1)"/></svg>