<svg xmlns="http://www.w3.org/2000/svg" xmlns:xlink="http://www.w3.org/1999/xlink" t="1584762969678" class="icon" viewBox="0 0 1024 1024" version="1.1" p-id="12392" width="200" height="200"><defs><style type="text/css"/></defs><path d="M984.680094 329.724147l-397.404391 397.625294c-20.985779 20.985779-49.040453 32.693635-78.641446 32.693635-2.429932 0-4.859865 0-7.289798-0.220903l-287.394725-18.997653c-31.147315-1.988126-56.33025-27.171062-58.318377-58.318376l-6.847991-102.057159c-14.579594 8.394312-28.496479 18.997653-41.087947 31.589121-30.705509 30.705509-49.703162 68.921718-53.679415 107.800635-3.75535 36.890791 6.847991 69.805329 29.821897 92.779235 48.81955 48.81955 138.727047 37.995306 200.800774-23.857518 10.382438-10.382438 27.171062-10.382438 37.5535 0s10.382438 27.171062 0 37.5535c-83.059506 82.396797-206.765153 93.000138-276.128676 23.636615-34.460859-34.460859-50.36587-82.396797-45.0642-135.634406 5.080768-51.028579 29.600994-100.731741 68.921717-140.052464 22.090294-22.090294 47.715035-39.541626 74.886097-51.470385l-8.394312-127.902803c-2.209029-32.030926 9.719729-63.399144 32.472733-86.152147l397.625293-397.625293c25.182935-25.182935 58.539279-38.878918 94.104653-38.878918s68.921718 13.916885 94.104653 38.878918l230.401767 230.401767c25.182935 25.182935 38.878918 58.539279 38.878917 94.104653-0.220903 35.786276-14.137788 69.14262-39.320723 94.104652z m-37.332597-150.434902l-230.62267-230.62267c-15.0214-15.0214-35.123568-23.415712-56.551153-23.415712-21.427585 0-41.529753 8.394312-56.551153 23.415712l-397.625293 397.625293c-11.928759 11.928759-18.114041 28.275576-17.009527 45.0642l7.731603 115.753141c4.418059-0.662709 8.836118-1.325418 13.254177-1.767224 6.627088-0.662709 13.254176-1.104515 19.660361-1.104514 45.285103 0 85.710341 15.905012 115.753141 45.947811 10.382438 10.382438 10.382438 27.171062 0 37.5535s-27.171062 10.382438-37.5535 0c-22.973906-22.973906-55.888444-33.577247-92.779235-29.821897-5.080768 0.441806-9.940632 1.325418-14.800497 2.20903l7.952506 118.403976c0.220903 4.859865 4.197156 8.615215 9.057021 9.057021l287.394726 18.997652c1.325418 0 2.650835 0.220903 3.976253 0.220903 15.463206 0 30.484606-6.185282 41.308849-17.009526l397.404391-397.404391c15.0214-15.0214 23.415712-35.123568 23.415712-56.551152 0-21.427585-8.394312-41.529753-23.415712-56.551153z" transform="translate(0 900)scale(1 -1)"/></svg>